<?xml version="1.0" encoding="UTF-8" standalone="no"?>
<!DOCTYPE svg PUBLIC "-//W3C//DTD SVG 1.1//EN" "http://www.w3.org/Graphics/SVG/1.1/DTD/svg11.dtd">
<svg width="100%" height="100%" viewBox="0 0 1273 289" version="1.1" xmlns="http://www.w3.org/2000/svg" xmlns:xlink="http://www.w3.org/1999/xlink" xml:space="preserve" xmlns:serif="http://www.serif.com/" style="fill-rule:evenodd;clip-rule:evenodd;stroke-linejoin:round;stroke-miterlimit:2;">
    <g transform="matrix(1,0,0,1,-2900,0)">
        <g id="down" transform="matrix(1,0,0,1,2490,-516)">
            <rect x="410" y="516" width="1273" height="289" style="fill:none;"/>
            <clipPath id="_clip1">
                <rect x="410" y="516" width="1273" height="289"/>
            </clipPath>
            <g clip-path="url(#_clip1)">
                <g transform="matrix(1,0,0,1,10.0394,0)">
                    <g transform="matrix(1.85569,0,0,1.59669,-317.429,-68.3867)">
                        <path d="M1078,420.15L1078,492.85C1078,522.736 1057.12,547 1031.41,547L438.592,547C412.877,547 392,522.736 392,492.85L392,420.15C392,390.264 412.877,366 438.592,366L1031.41,366C1057.12,366 1078,390.264 1078,420.15Z" style="fill:rgb(200,17,0);"/>
                    </g>
                    <g transform="matrix(0.524781,0,0,1.59669,204.286,-68.3867)">
                        <path d="M1078,366L1078,547L556.756,547C465.825,547 392,522.736 392,492.85L392,420.15C392,390.264 465.825,366 556.756,366L1078,366Z" style="fill:rgb(167,26,13);"/>
                    </g>
                    <g transform="matrix(1,0,0,1,35.4315,29.9547)">
                        <g transform="matrix(185.674,0,0,185.674,885,697)">
                            <path d="M0.072,-0.716L0.336,-0.716C0.396,-0.716 0.441,-0.711 0.473,-0.702C0.515,-0.69 0.551,-0.668 0.581,-0.636C0.611,-0.605 0.633,-0.566 0.649,-0.52C0.665,-0.475 0.672,-0.418 0.672,-0.351C0.672,-0.292 0.665,-0.241 0.65,-0.199C0.632,-0.147 0.607,-0.104 0.574,-0.072C0.549,-0.048 0.515,-0.029 0.472,-0.015C0.44,-0.005 0.398,-0 0.344,-0L0.072,-0L0.072,-0.716ZM0.217,-0.595L0.217,-0.121L0.325,-0.121C0.365,-0.121 0.394,-0.123 0.412,-0.127C0.436,-0.133 0.455,-0.143 0.47,-0.157C0.486,-0.171 0.499,-0.194 0.508,-0.226C0.518,-0.258 0.523,-0.302 0.523,-0.357C0.523,-0.413 0.518,-0.455 0.508,-0.485C0.499,-0.514 0.485,-0.538 0.467,-0.554C0.45,-0.571 0.427,-0.582 0.4,-0.588C0.38,-0.592 0.341,-0.595 0.282,-0.595L0.217,-0.595Z" style="fill:white;fill-rule:nonzero;"/>
                        </g>
                        <g transform="matrix(185.674,0,0,185.674,1019.09,697)">
                            <path d="M0.043,-0.354C0.043,-0.426 0.054,-0.488 0.076,-0.537C0.092,-0.574 0.115,-0.606 0.143,-0.635C0.171,-0.664 0.202,-0.686 0.235,-0.7C0.28,-0.719 0.331,-0.728 0.39,-0.728C0.495,-0.728 0.58,-0.695 0.643,-0.63C0.706,-0.564 0.738,-0.473 0.738,-0.357C0.738,-0.241 0.706,-0.151 0.644,-0.086C0.581,-0.02 0.497,0.012 0.392,0.012C0.285,0.012 0.201,-0.02 0.138,-0.085C0.075,-0.15 0.043,-0.24 0.043,-0.354ZM0.192,-0.358C0.192,-0.277 0.211,-0.216 0.249,-0.174C0.286,-0.132 0.333,-0.111 0.391,-0.111C0.449,-0.111 0.496,-0.132 0.533,-0.174C0.57,-0.215 0.588,-0.277 0.588,-0.36C0.588,-0.442 0.57,-0.504 0.534,-0.544C0.498,-0.584 0.451,-0.604 0.391,-0.604C0.332,-0.604 0.284,-0.584 0.247,-0.543C0.211,-0.502 0.192,-0.441 0.192,-0.358Z" style="fill:white;fill-rule:nonzero;"/>
                        </g>
                        <g transform="matrix(185.674,0,0,185.674,1163.51,697)">
                            <path d="M0.174,-0L0.003,-0.716L0.151,-0.716L0.259,-0.224L0.39,-0.716L0.562,-0.716L0.688,-0.216L0.797,-0.716L0.943,-0.716L0.769,-0L0.616,-0L0.473,-0.535L0.331,-0L0.174,-0Z" style="fill:white;fill-rule:nonzero;"/>
                        </g>
                        <g transform="matrix(185.674,0,0,185.674,1338.76,697)">
                            <path d="M0.074,-0L0.074,-0.716L0.215,-0.716L0.508,-0.238L0.508,-0.716L0.642,-0.716L0.642,-0L0.497,-0L0.208,-0.467L0.208,-0L0.074,-0Z" style="fill:white;fill-rule:nonzero;"/>
                        </g>
                    </g>
                    <g id="emoji-sad" transform="matrix(9.37451,0,0,9.37451,496.25,566.75)">
                        <path d="M10.001,0.4C4.698,0.4 0.4,4.698 0.4,10C0.4,15.303 4.698,19.601 10.001,19.601C15.302,19.601 19.601,15.303 19.601,10C19.601,4.697 15.301,0.4 10.001,0.4ZM10,17.599C5.803,17.599 2.4,14.197 2.4,9.999C2.4,5.802 5.802,2.399 10,2.399C14.197,2.399 17.6,5.801 17.6,9.999C17.6,14.197 14.197,17.599 10,17.599ZM12.501,9.75C13.329,9.75 14.001,8.967 14.001,8C14.001,7.033 13.329,6.25 12.501,6.25C11.673,6.25 11.001,7.033 11.001,8C11.001,8.967 11.672,9.75 12.501,9.75ZM7.501,9.75C8.329,9.75 9.001,8.967 9.001,8C9.001,7.033 8.329,6.25 7.501,6.25C6.673,6.25 6.001,7.033 6.001,8C6.001,8.967 6.672,9.75 7.501,9.75ZM10.002,11.25C6.578,11.25 5.38,13.565 5.33,13.664C5.144,14.035 5.295,14.485 5.665,14.671C5.773,14.724 5.887,14.75 6,14.75C6.275,14.75 6.54,14.599 6.672,14.336C6.68,14.319 7.494,12.75 10.002,12.75C12.465,12.75 13.3,14.277 13.33,14.335C13.514,14.705 13.965,14.858 14.336,14.671C14.707,14.487 14.857,14.035 14.672,13.665C14.623,13.566 13.426,11.25 10.002,11.25Z" style="fill:white;fill-rule:nonzero;"/>
                    </g>
                </g>
            </g>
        </g>
    </g>
</svg>
