<?xml version="1.0" encoding="UTF-8" standalone="no"?>
<!DOCTYPE svg PUBLIC "-//W3C//DTD SVG 1.1//EN" "http://www.w3.org/Graphics/SVG/1.1/DTD/svg11.dtd">
<svg width="100%" height="100%" viewBox="0 0 1273 289" version="1.1" xmlns="http://www.w3.org/2000/svg" xmlns:xlink="http://www.w3.org/1999/xlink" xml:space="preserve" xmlns:serif="http://www.serif.com/" style="fill-rule:evenodd;clip-rule:evenodd;stroke-linejoin:round;stroke-miterlimit:2;">
    <g transform="matrix(1,0,0,1,-2900,-402)">
        <g id="failed" transform="matrix(1,0,0,1,2490,-114)">
            <rect x="410" y="516" width="1273" height="289" style="fill:none;"/>
            <clipPath id="_clip1">
                <rect x="410" y="516" width="1273" height="289"/>
            </clipPath>
            <g clip-path="url(#_clip1)">
                <g>
                    <g transform="matrix(1.85569,0,0,1.59669,-317.429,-68.3867)">
                        <path d="M1078,420.15L1078,492.85C1078,522.736 1057.12,547 1031.41,547L438.592,547C412.877,547 392,522.736 392,492.85L392,420.15C392,390.264 412.877,366 438.592,366L1031.41,366C1057.12,366 1078,390.264 1078,420.15Z" style="fill:white;"/>
                    </g>
                    <g transform="matrix(0.524781,0,0,1.59669,204.286,-68.3867)">
                        <path d="M1078,366L1078,547L556.756,547C465.825,547 392,522.736 392,492.85L392,420.15C392,390.264 465.825,366 556.756,366L1078,366Z" style="fill:rgb(253,37,37);"/>
                    </g>
                    <g transform="matrix(0.936685,0,0,0.936685,88.149,69.8777)">
                        <g transform="matrix(185.674,0,0,185.674,885,697)">
                            <path d="M0.074,-0L0.074,-0.716L0.564,-0.716L0.564,-0.595L0.218,-0.595L0.218,-0.425L0.517,-0.425L0.517,-0.304L0.218,-0.304L0.218,-0L0.074,-0Z" style="fill:rgb(253,37,37);fill-rule:nonzero;"/>
                        </g>
                        <g transform="matrix(185.674,0,0,185.674,988.172,697)">
                            <path d="M0.718,-0L0.561,-0L0.499,-0.163L0.212,-0.163L0.153,-0L0,-0L0.279,-0.716L0.432,-0.716L0.718,-0ZM0.452,-0.283L0.354,-0.549L0.257,-0.283L0.452,-0.283Z" style="fill:rgb(253,37,37);fill-rule:nonzero;"/>
                        </g>
                        <g transform="matrix(185.674,0,0,185.674,1122.26,697)">
                            <rect x="0.068" y="-0.716" width="0.145" height="0.716" style="fill:rgb(253,37,37);fill-rule:nonzero;"/>
                        </g>
                        <g transform="matrix(185.674,0,0,185.674,1173.85,697)">
                            <path d="M0.077,-0L0.077,-0.71L0.221,-0.71L0.221,-0.121L0.581,-0.121L0.581,-0L0.077,-0Z" style="fill:rgb(253,37,37);fill-rule:nonzero;"/>
                        </g>
                        <g transform="matrix(185.674,0,0,185.674,1287.26,697)">
                            <path d="M0.073,-0L0.073,-0.716L0.604,-0.716L0.604,-0.595L0.217,-0.595L0.217,-0.436L0.577,-0.436L0.577,-0.315L0.217,-0.315L0.217,-0.121L0.617,-0.121L0.617,-0L0.073,-0Z" style="fill:rgb(253,37,37);fill-rule:nonzero;"/>
                        </g>
                        <g transform="matrix(185.674,0,0,185.674,1411.11,697)">
                            <path d="M0.072,-0.716L0.336,-0.716C0.396,-0.716 0.441,-0.711 0.473,-0.702C0.515,-0.69 0.551,-0.668 0.581,-0.636C0.611,-0.605 0.633,-0.566 0.649,-0.52C0.665,-0.475 0.672,-0.418 0.672,-0.351C0.672,-0.292 0.665,-0.241 0.65,-0.199C0.632,-0.147 0.607,-0.104 0.574,-0.072C0.549,-0.048 0.515,-0.029 0.472,-0.015C0.44,-0.005 0.398,-0 0.344,-0L0.072,-0L0.072,-0.716ZM0.217,-0.595L0.217,-0.121L0.325,-0.121C0.365,-0.121 0.394,-0.123 0.412,-0.127C0.436,-0.133 0.455,-0.143 0.47,-0.157C0.486,-0.171 0.499,-0.194 0.508,-0.226C0.518,-0.258 0.523,-0.302 0.523,-0.357C0.523,-0.413 0.518,-0.455 0.508,-0.485C0.499,-0.514 0.485,-0.538 0.467,-0.554C0.45,-0.571 0.427,-0.582 0.4,-0.588C0.38,-0.592 0.341,-0.595 0.282,-0.595L0.217,-0.595Z" style="fill:rgb(253,37,37);fill-rule:nonzero;"/>
                        </g>
                    </g>
                    <g id="heart-off" transform="matrix(8.36923,0,0,8.36923,493.756,555.895)">
                        <path d="M1,4.268L2.277,3L20,20.723L18.732,22L15.176,18.444L13.448,20.033L11.999,21.35L10.55,20.033C5.401,15.361 1.999,12.274 1.999,8.498C1.999,7.552 2.227,6.669 2.631,5.899L1,4.268ZM7.499,2.998C9.24,2.998 10.908,3.806 11.999,5.084C13.09,3.806 14.758,2.998 16.499,2.998C19.583,2.998 21.999,5.414 21.999,8.498C21.999,11.068 20.423,13.32 17.792,15.969L5.274,3.451C5.951,3.159 6.703,2.998 7.499,2.998Z" style="fill:white;fill-rule:nonzero;"/>
                    </g>
                </g>
            </g>
        </g>
    </g>
</svg>
