<?xml version="1.0" encoding="UTF-8" standalone="no"?>
<!DOCTYPE svg PUBLIC "-//W3C//DTD SVG 1.1//EN" "http://www.w3.org/Graphics/SVG/1.1/DTD/svg11.dtd">
<svg width="100%" height="100%" viewBox="0 0 1273 289" version="1.1" xmlns="http://www.w3.org/2000/svg" xmlns:xlink="http://www.w3.org/1999/xlink" xml:space="preserve" xmlns:serif="http://www.serif.com/" style="fill-rule:evenodd;clip-rule:evenodd;stroke-linejoin:round;stroke-miterlimit:2;">
    <g transform="matrix(1,0,0,1,-1423,-402)">
        <g id="maintenance" transform="matrix(1,0,0,1,1013,-114)">
            <rect x="410" y="516" width="1273" height="289" style="fill:none;"/>
            <clipPath id="_clip1">
                <rect x="410" y="516" width="1273" height="289"/>
            </clipPath>
            <g clip-path="url(#_clip1)">
                <g>
                    <g transform="matrix(1.85569,0,0,1.59669,-317.429,-68.3867)">
                        <path d="M1078,420.15L1078,492.85C1078,522.736 1057.12,547 1031.41,547L438.592,547C412.877,547 392,522.736 392,492.85L392,420.15C392,390.264 412.877,366 438.592,366L1031.41,366C1057.12,366 1078,390.264 1078,420.15Z" style="fill:rgb(203,88,179);"/>
                    </g>
                    <g transform="matrix(0.524781,0,0,1.59669,204.286,-68.3867)">
                        <path d="M1078,366L1078,547L556.756,547C465.825,547 392,522.736 392,492.85L392,420.15C392,390.264 465.825,366 556.756,366L1078,366Z" style="fill:rgb(148,37,125);"/>
                    </g>
                    <g transform="matrix(0.608717,0,0,0.608717,275.89,276.676)">
                        <g transform="matrix(185.674,0,0,185.674,885,697)">
                            <path d="M0.071,-0L0.071,-0.716L0.287,-0.716L0.417,-0.228L0.545,-0.716L0.762,-0.716L0.762,-0L0.628,-0L0.628,-0.563L0.486,-0L0.347,-0L0.205,-0.563L0.205,-0L0.071,-0Z" style="fill:white;fill-rule:nonzero;"/>
                        </g>
                        <g transform="matrix(185.674,0,0,185.674,1039.67,697)">
                            <path d="M0.718,-0L0.561,-0L0.499,-0.163L0.212,-0.163L0.153,-0L0,-0L0.279,-0.716L0.432,-0.716L0.718,-0ZM0.452,-0.283L0.354,-0.549L0.257,-0.283L0.452,-0.283Z" style="fill:white;fill-rule:nonzero;"/>
                        </g>
                        <g transform="matrix(185.674,0,0,185.674,1173.76,697)">
                            <rect x="0.068" y="-0.716" width="0.145" height="0.716" style="fill:white;fill-rule:nonzero;"/>
                        </g>
                        <g transform="matrix(185.674,0,0,185.674,1225.34,697)">
                            <path d="M0.074,-0L0.074,-0.716L0.215,-0.716L0.508,-0.238L0.508,-0.716L0.642,-0.716L0.642,-0L0.497,-0L0.208,-0.467L0.208,-0L0.074,-0Z" style="fill:white;fill-rule:nonzero;"/>
                        </g>
                        <g transform="matrix(185.674,0,0,185.674,1359.43,697)">
                            <path d="M0.234,-0L0.234,-0.595L0.021,-0.595L0.021,-0.716L0.59,-0.716L0.59,-0.595L0.378,-0.595L0.378,-0L0.234,-0Z" style="fill:white;fill-rule:nonzero;"/>
                        </g>
                        <g transform="matrix(185.674,0,0,185.674,1472.85,697)">
                            <path d="M0.073,-0L0.073,-0.716L0.604,-0.716L0.604,-0.595L0.217,-0.595L0.217,-0.436L0.577,-0.436L0.577,-0.315L0.217,-0.315L0.217,-0.121L0.617,-0.121L0.617,-0L0.073,-0Z" style="fill:white;fill-rule:nonzero;"/>
                        </g>
                        <g transform="matrix(185.674,0,0,185.674,1596.69,697)">
                            <path d="M0.074,-0L0.074,-0.716L0.215,-0.716L0.508,-0.238L0.508,-0.716L0.642,-0.716L0.642,-0L0.497,-0L0.208,-0.467L0.208,-0L0.074,-0Z" style="fill:white;fill-rule:nonzero;"/>
                        </g>
                        <g transform="matrix(185.674,0,0,185.674,1730.78,697)">
                            <path d="M0.718,-0L0.561,-0L0.499,-0.163L0.212,-0.163L0.153,-0L0,-0L0.279,-0.716L0.432,-0.716L0.718,-0ZM0.452,-0.283L0.354,-0.549L0.257,-0.283L0.452,-0.283Z" style="fill:white;fill-rule:nonzero;"/>
                        </g>
                        <g transform="matrix(185.674,0,0,185.674,1864.87,697)">
                            <path d="M0.074,-0L0.074,-0.716L0.215,-0.716L0.508,-0.238L0.508,-0.716L0.642,-0.716L0.642,-0L0.497,-0L0.208,-0.467L0.208,-0L0.074,-0Z" style="fill:white;fill-rule:nonzero;"/>
                        </g>
                        <g transform="matrix(185.674,0,0,185.674,1998.95,697)">
                            <path d="M0.531,-0.263L0.671,-0.219C0.649,-0.141 0.614,-0.083 0.564,-0.045C0.514,-0.007 0.45,0.012 0.374,0.012C0.278,0.012 0.2,-0.02 0.139,-0.085C0.078,-0.15 0.047,-0.239 0.047,-0.352C0.047,-0.471 0.078,-0.563 0.14,-0.629C0.201,-0.695 0.282,-0.728 0.382,-0.728C0.47,-0.728 0.541,-0.702 0.596,-0.65C0.628,-0.62 0.653,-0.576 0.669,-0.519L0.526,-0.484C0.517,-0.521 0.5,-0.551 0.473,-0.572C0.446,-0.594 0.413,-0.604 0.375,-0.604C0.322,-0.604 0.279,-0.585 0.246,-0.547C0.213,-0.509 0.196,-0.448 0.196,-0.362C0.196,-0.272 0.213,-0.207 0.245,-0.169C0.278,-0.131 0.32,-0.111 0.372,-0.111C0.41,-0.111 0.444,-0.124 0.471,-0.148C0.499,-0.172 0.519,-0.211 0.531,-0.263Z" style="fill:white;fill-rule:nonzero;"/>
                        </g>
                        <g transform="matrix(185.674,0,0,185.674,2133.04,697)">
                            <path d="M0.073,-0L0.073,-0.716L0.604,-0.716L0.604,-0.595L0.217,-0.595L0.217,-0.436L0.577,-0.436L0.577,-0.315L0.217,-0.315L0.217,-0.121L0.617,-0.121L0.617,-0L0.073,-0Z" style="fill:white;fill-rule:nonzero;"/>
                        </g>
                    </g>
                    <g id="worker" transform="matrix(10.7379,0,0,10.7379,461.145,537.014)">
                        <path d="M12,15C7.58,15 4,16.79 4,19L4,21L20,21L20,19C20,16.79 16.42,15 12,15ZM8,9C8,11.209 9.791,13 12,13C14.209,13 16,11.209 16,9M11.5,2C11.195,2 11,2.21 11,2.5L11,5.5L10,5.5L10,3C10,3 7.75,3.859 7.75,6.75C7.75,6.75 7,6.892 7,8L17,8C16.95,6.892 16.25,6.75 16.25,6.75C16.25,3.859 14,3 14,3L14,5.5L13,5.5L13,2.5C13,2.21 12.805,2 12.5,2L11.5,2Z" style="fill:white;fill-rule:nonzero;"/>
                    </g>
                </g>
            </g>
        </g>
    </g>
</svg>
