<?xml version="1.0" encoding="UTF-8" standalone="no"?>
<!DOCTYPE svg PUBLIC "-//W3C//DTD SVG 1.1//EN" "http://www.w3.org/Graphics/SVG/1.1/DTD/svg11.dtd">
<svg width="100%" height="100%" viewBox="0 0 1273 289" version="1.1" xmlns="http://www.w3.org/2000/svg" xmlns:xlink="http://www.w3.org/1999/xlink" xml:space="preserve" xmlns:serif="http://www.serif.com/" style="fill-rule:evenodd;clip-rule:evenodd;stroke-linejoin:round;stroke-miterlimit:2;">
    <g transform="matrix(1,0,0,1,-1423,0)">
        <g id="maybe" transform="matrix(1,0,0,1,1013,-516)">
            <rect x="410" y="516" width="1273" height="289" style="fill:none;"/>
            <clipPath id="_clip1">
                <rect x="410" y="516" width="1273" height="289"/>
            </clipPath>
            <g clip-path="url(#_clip1)">
                <g>
                    <g transform="matrix(1.85569,0,0,1.59669,-317.429,-68.3867)">
                        <path d="M1078,420.15L1078,492.85C1078,522.736 1057.12,547 1031.41,547L438.592,547C412.877,547 392,522.736 392,492.85L392,420.15C392,390.264 412.877,366 438.592,366L1031.41,366C1057.12,366 1078,390.264 1078,420.15Z" style="fill:rgb(211,135,26);"/>
                    </g>
                    <g transform="matrix(0.524781,0,0,1.59669,204.286,-68.3867)">
                        <path d="M1078,366L1078,547L556.756,547C465.825,547 392,522.736 392,492.85L392,420.15C392,390.264 465.825,366 556.756,366L1078,366Z" style="fill:rgb(163,111,23);"/>
                    </g>
                    <g transform="matrix(1,0,0,1,-14.5685,29.9547)">
                        <g transform="matrix(185.674,0,0,185.674,885,697)">
                            <path d="M0.072,-0.716L0.336,-0.716C0.396,-0.716 0.441,-0.711 0.473,-0.702C0.515,-0.69 0.551,-0.668 0.581,-0.636C0.611,-0.605 0.633,-0.566 0.649,-0.52C0.665,-0.475 0.672,-0.418 0.672,-0.351C0.672,-0.292 0.665,-0.241 0.65,-0.199C0.632,-0.147 0.607,-0.104 0.574,-0.072C0.549,-0.048 0.515,-0.029 0.472,-0.015C0.44,-0.005 0.398,-0 0.344,-0L0.072,-0L0.072,-0.716ZM0.217,-0.595L0.217,-0.121L0.325,-0.121C0.365,-0.121 0.394,-0.123 0.412,-0.127C0.436,-0.133 0.455,-0.143 0.47,-0.157C0.486,-0.171 0.499,-0.194 0.508,-0.226C0.518,-0.258 0.523,-0.302 0.523,-0.357C0.523,-0.413 0.518,-0.455 0.508,-0.485C0.499,-0.514 0.485,-0.538 0.467,-0.554C0.45,-0.571 0.427,-0.582 0.4,-0.588C0.38,-0.592 0.341,-0.595 0.282,-0.595L0.217,-0.595Z" style="fill:white;fill-rule:nonzero;"/>
                        </g>
                        <g transform="matrix(185.674,0,0,185.674,1019.09,697)">
                            <path d="M0.043,-0.354C0.043,-0.426 0.054,-0.488 0.076,-0.537C0.092,-0.574 0.115,-0.606 0.143,-0.635C0.171,-0.664 0.202,-0.686 0.235,-0.7C0.28,-0.719 0.331,-0.728 0.39,-0.728C0.495,-0.728 0.58,-0.695 0.643,-0.63C0.706,-0.564 0.738,-0.473 0.738,-0.357C0.738,-0.241 0.706,-0.151 0.644,-0.086C0.581,-0.02 0.497,0.012 0.392,0.012C0.285,0.012 0.201,-0.02 0.138,-0.085C0.075,-0.15 0.043,-0.24 0.043,-0.354ZM0.192,-0.358C0.192,-0.277 0.211,-0.216 0.249,-0.174C0.286,-0.132 0.333,-0.111 0.391,-0.111C0.449,-0.111 0.496,-0.132 0.533,-0.174C0.57,-0.215 0.588,-0.277 0.588,-0.36C0.588,-0.442 0.57,-0.504 0.534,-0.544C0.498,-0.584 0.451,-0.604 0.391,-0.604C0.332,-0.604 0.284,-0.584 0.247,-0.543C0.211,-0.502 0.192,-0.441 0.192,-0.358Z" style="fill:white;fill-rule:nonzero;"/>
                        </g>
                        <g transform="matrix(185.674,0,0,185.674,1163.51,697)">
                            <path d="M0.072,-0.716L0.336,-0.716C0.396,-0.716 0.441,-0.711 0.473,-0.702C0.515,-0.69 0.551,-0.668 0.581,-0.636C0.611,-0.605 0.633,-0.566 0.649,-0.52C0.665,-0.475 0.672,-0.418 0.672,-0.351C0.672,-0.292 0.665,-0.241 0.65,-0.199C0.632,-0.147 0.607,-0.104 0.574,-0.072C0.549,-0.048 0.515,-0.029 0.472,-0.015C0.44,-0.005 0.398,-0 0.344,-0L0.072,-0L0.072,-0.716ZM0.217,-0.595L0.217,-0.121L0.325,-0.121C0.365,-0.121 0.394,-0.123 0.412,-0.127C0.436,-0.133 0.455,-0.143 0.47,-0.157C0.486,-0.171 0.499,-0.194 0.508,-0.226C0.518,-0.258 0.523,-0.302 0.523,-0.357C0.523,-0.413 0.518,-0.455 0.508,-0.485C0.499,-0.514 0.485,-0.538 0.467,-0.554C0.45,-0.571 0.427,-0.582 0.4,-0.588C0.38,-0.592 0.341,-0.595 0.282,-0.595L0.217,-0.595Z" style="fill:white;fill-rule:nonzero;"/>
                        </g>
                        <g transform="matrix(185.674,0,0,185.674,1297.6,697)">
                            <path d="M0.406,-0.263L0.406,-0.384L0.717,-0.384L0.717,-0.099C0.687,-0.069 0.643,-0.044 0.586,-0.021C0.528,0.001 0.47,0.012 0.411,0.012C0.336,0.012 0.271,-0.003 0.215,-0.035C0.16,-0.066 0.118,-0.111 0.09,-0.17C0.062,-0.228 0.048,-0.292 0.048,-0.36C0.048,-0.435 0.063,-0.501 0.095,-0.559C0.126,-0.617 0.172,-0.661 0.232,-0.692C0.278,-0.716 0.335,-0.728 0.403,-0.728C0.492,-0.728 0.562,-0.709 0.612,-0.672C0.662,-0.635 0.694,-0.583 0.708,-0.518L0.564,-0.491C0.554,-0.526 0.535,-0.554 0.508,-0.574C0.48,-0.594 0.445,-0.604 0.403,-0.604C0.34,-0.604 0.29,-0.584 0.253,-0.544C0.215,-0.504 0.197,-0.445 0.197,-0.366C0.197,-0.281 0.216,-0.218 0.253,-0.175C0.291,-0.133 0.341,-0.111 0.402,-0.111C0.432,-0.111 0.462,-0.117 0.493,-0.129C0.523,-0.141 0.549,-0.155 0.571,-0.172L0.571,-0.263L0.406,-0.263Z" style="fill:white;fill-rule:nonzero;"/>
                        </g>
                        <g transform="matrix(185.674,0,0,185.674,1442.02,697)">
                            <path d="M0.261,-0L0.261,-0.301L-0.001,-0.716L0.168,-0.716L0.336,-0.433L0.501,-0.716L0.668,-0.716L0.405,-0.3L0.405,-0L0.261,-0Z" style="fill:white;fill-rule:nonzero;"/>
                        </g>
                    </g>
                    <g>
                        <g id="emoji-happy" transform="matrix(9.375,0,0,9.375,496.25,566.75)">
                            <path d="M10,0.4C4.698,0.4 0.4,4.698 0.4,10C0.4,15.302 4.698,19.6 10,19.6C15.301,19.6 19.6,15.302 19.6,9.999C19.6,4.698 15.301,0.4 10,0.4ZM10,17.599C5.803,17.599 2.4,14.197 2.4,9.999C2.4,5.801 5.802,2.4 10,2.4C14.197,2.4 17.601,5.802 17.601,10C17.601,14.198 14.197,17.599 10,17.599ZM7.501,9.75C8.329,9.75 9,8.967 9,8C9,7.033 8.328,6.25 7.5,6.25C6.672,6.25 6,7.033 6,8C6,8.967 6.672,9.75 7.501,9.75ZM12.5,9.75C13.329,9.75 14,8.967 14,8C14,7.033 13.328,6.25 12.5,6.25C11.672,6.25 11,7.034 11,8C11,8.966 11.672,9.75 12.5,9.75Z" style="fill:white;fill-rule:nonzero;"/>
                        </g>
                        <g transform="matrix(0.802469,0,0,1,-691.944,520)">
                            <path d="M1638,169.25L1638,175.75C1638,177.544 1636.18,179 1633.95,179L1561.05,179C1558.82,179 1557,177.544 1557,175.75L1557,169.25C1557,167.456 1558.82,166 1561.05,166L1633.95,166C1636.18,166 1638,167.456 1638,169.25Z" style="fill:white;"/>
                        </g>
                    </g>
                </g>
            </g>
        </g>
    </g>
</svg>
