<?xml version="1.0" encoding="UTF-8" standalone="no"?>
<!DOCTYPE svg PUBLIC "-//W3C//DTD SVG 1.1//EN" "http://www.w3.org/Graphics/SVG/1.1/DTD/svg11.dtd">
<svg width="100%" height="100%" viewBox="0 0 1273 289" version="1.1" xmlns="http://www.w3.org/2000/svg" xmlns:xlink="http://www.w3.org/1999/xlink" xml:space="preserve" xmlns:serif="http://www.serif.com/" style="fill-rule:evenodd;clip-rule:evenodd;stroke-linejoin:round;stroke-miterlimit:2;">
    <g transform="matrix(1,0,0,1,-1,-402)">
        <g id="unknown" transform="matrix(1,0,0,1,-409,-114)">
            <rect x="410" y="516" width="1273" height="289" style="fill:none;"/>
            <g>
                <g transform="matrix(1.85569,0,0,1.59669,-317.429,-68.3867)">
                    <path d="M1078,420.15L1078,492.85C1078,522.736 1057.12,547 1031.41,547L438.592,547C412.877,547 392,522.736 392,492.85L392,420.15C392,390.264 412.877,366 438.592,366L1031.41,366C1057.12,366 1078,390.264 1078,420.15Z" style="fill:rgb(136,136,136);"/>
                </g>
                <g transform="matrix(0.524781,0,0,1.59669,204.286,-68.3867)">
                    <path d="M1078,366L1078,547L556.756,547C465.825,547 392,522.736 392,492.85L392,420.15C392,390.264 465.825,366 556.756,366L1078,366Z" style="fill:rgb(74,74,74);"/>
                </g>
                <g transform="matrix(0.787901,0,0,0.787901,139.419,163.693)">
                    <g transform="matrix(185.674,0,0,185.674,885,697)">
                        <path d="M0.072,-0.716L0.216,-0.716L0.216,-0.328C0.216,-0.267 0.218,-0.227 0.222,-0.208C0.228,-0.179 0.243,-0.156 0.266,-0.138C0.289,-0.12 0.321,-0.111 0.361,-0.111C0.402,-0.111 0.433,-0.12 0.454,-0.136C0.475,-0.153 0.487,-0.174 0.492,-0.198C0.496,-0.223 0.498,-0.263 0.498,-0.32L0.498,-0.716L0.643,-0.716L0.643,-0.34C0.643,-0.254 0.639,-0.193 0.631,-0.158C0.623,-0.122 0.609,-0.092 0.588,-0.068C0.567,-0.043 0.539,-0.024 0.503,-0.01C0.468,0.005 0.422,0.012 0.366,0.012C0.297,0.012 0.246,0.004 0.21,-0.011C0.175,-0.027 0.147,-0.048 0.126,-0.073C0.106,-0.098 0.092,-0.125 0.086,-0.152C0.076,-0.193 0.072,-0.254 0.072,-0.334L0.072,-0.716Z" style="fill:white;fill-rule:nonzero;"/>
                    </g>
                    <g transform="matrix(185.674,0,0,185.674,1019.09,697)">
                        <path d="M0.074,-0L0.074,-0.716L0.215,-0.716L0.508,-0.238L0.508,-0.716L0.642,-0.716L0.642,-0L0.497,-0L0.208,-0.467L0.208,-0L0.074,-0Z" style="fill:white;fill-rule:nonzero;"/>
                    </g>
                    <g transform="matrix(185.674,0,0,185.674,1153.18,697)">
                        <path d="M0.075,-0L0.075,-0.716L0.219,-0.716L0.219,-0.398L0.511,-0.716L0.706,-0.716L0.436,-0.437L0.72,-0L0.533,-0L0.336,-0.336L0.219,-0.216L0.219,-0L0.075,-0Z" style="fill:white;fill-rule:nonzero;"/>
                    </g>
                    <g transform="matrix(185.674,0,0,185.674,1287.26,697)">
                        <path d="M0.074,-0L0.074,-0.716L0.215,-0.716L0.508,-0.238L0.508,-0.716L0.642,-0.716L0.642,-0L0.497,-0L0.208,-0.467L0.208,-0L0.074,-0Z" style="fill:white;fill-rule:nonzero;"/>
                    </g>
                    <g transform="matrix(185.674,0,0,185.674,1421.35,697)">
                        <path d="M0.043,-0.354C0.043,-0.426 0.054,-0.488 0.076,-0.537C0.092,-0.574 0.115,-0.606 0.143,-0.635C0.171,-0.664 0.202,-0.686 0.235,-0.7C0.28,-0.719 0.331,-0.728 0.39,-0.728C0.495,-0.728 0.58,-0.695 0.643,-0.63C0.706,-0.564 0.738,-0.473 0.738,-0.357C0.738,-0.241 0.706,-0.151 0.644,-0.086C0.581,-0.02 0.497,0.012 0.392,0.012C0.285,0.012 0.201,-0.02 0.138,-0.085C0.075,-0.15 0.043,-0.24 0.043,-0.354ZM0.192,-0.358C0.192,-0.277 0.211,-0.216 0.249,-0.174C0.286,-0.132 0.333,-0.111 0.391,-0.111C0.449,-0.111 0.496,-0.132 0.533,-0.174C0.57,-0.215 0.588,-0.277 0.588,-0.36C0.588,-0.442 0.57,-0.504 0.534,-0.544C0.498,-0.584 0.451,-0.604 0.391,-0.604C0.332,-0.604 0.284,-0.584 0.247,-0.543C0.211,-0.502 0.192,-0.441 0.192,-0.358Z" style="fill:white;fill-rule:nonzero;"/>
                    </g>
                    <g transform="matrix(185.674,0,0,185.674,1565.78,697)">
                        <path d="M0.174,-0L0.003,-0.716L0.151,-0.716L0.259,-0.224L0.39,-0.716L0.562,-0.716L0.688,-0.216L0.797,-0.716L0.943,-0.716L0.769,-0L0.616,-0L0.473,-0.535L0.331,-0L0.174,-0Z" style="fill:white;fill-rule:nonzero;"/>
                    </g>
                    <g transform="matrix(185.674,0,0,185.674,1741.02,697)">
                        <path d="M0.074,-0L0.074,-0.716L0.215,-0.716L0.508,-0.238L0.508,-0.716L0.642,-0.716L0.642,-0L0.497,-0L0.208,-0.467L0.208,-0L0.074,-0Z" style="fill:white;fill-rule:nonzero;"/>
                    </g>
                </g>
                <g id="question-mark-circle" transform="matrix(9.28333,0,0,9.28333,478.6,549.1)">
                    <path d="M12,2C6.477,2 2,6.477 2,12C2,17.523 6.477,22 12,22C17.523,22 22,17.523 22,12C22,6.477 17.523,2 12,2ZM13,19L11,19L11,17L13,17L13,19ZM15.067,11.254L14.172,12.172C13.448,12.896 13,13.5 13,15L11,15L11,14.5C11,13.396 11.448,12.396 12.171,11.672L13.414,10.414C13.776,10.052 14,9.552 14,9C14,7.895 13.105,7 12,7C10.896,7 10,7.895 10,9L8,9C8,6.791 9.791,5 12,5C14.209,5 16,6.791 16,9C16,9.88 15.643,10.677 15.067,11.254Z" style="fill:white;fill-rule:nonzero;"/>
                </g>
            </g>
        </g>
    </g>
</svg>
