<?xml version="1.0" encoding="UTF-8" standalone="no"?>
<!DOCTYPE svg PUBLIC "-//W3C//DTD SVG 1.1//EN" "http://www.w3.org/Graphics/SVG/1.1/DTD/svg11.dtd">
<svg width="100%" height="100%" viewBox="0 0 1273 289" version="1.1" xmlns="http://www.w3.org/2000/svg" xmlns:xlink="http://www.w3.org/1999/xlink" xml:space="preserve" xmlns:serif="http://www.serif.com/" style="fill-rule:evenodd;clip-rule:evenodd;stroke-linejoin:round;stroke-miterlimit:2;">
    <g id="up" transform="matrix(1,0,0,1,-410,-516)">
        <rect x="410" y="516" width="1273" height="289" style="fill:none;"/>
        <g>
            <g transform="matrix(1.85569,0,0,1.59669,-317.429,-68.3867)">
                <path d="M1078,420.15L1078,492.85C1078,522.736 1057.12,547 1031.41,547L438.592,547C412.877,547 392,522.736 392,492.85L392,420.15C392,390.264 412.877,366 438.592,366L1031.41,366C1057.12,366 1078,390.264 1078,420.15Z" style="fill:rgb(75,167,13);"/>
            </g>
            <g transform="matrix(0.524781,0,0,1.59669,204.286,-68.3867)">
                <path d="M1078,366L1078,547L556.756,547C465.825,547 392,522.736 392,492.85L392,420.15C392,390.264 465.825,366 556.756,366L1078,366Z" style="fill:rgb(54,131,2);"/>
            </g>
            <g transform="matrix(0.939651,0,0,0.939651,3.6722,72.1549)">
                <g transform="matrix(185.674,0,0,185.674,885,697)">
                    <path d="M0.074,-0L0.074,-0.716L0.215,-0.716L0.508,-0.238L0.508,-0.716L0.642,-0.716L0.642,-0L0.497,-0L0.208,-0.467L0.208,-0L0.074,-0Z" style="fill:white;fill-rule:nonzero;"/>
                </g>
                <g transform="matrix(185.674,0,0,185.674,1019.09,697)">
                    <path d="M0.043,-0.354C0.043,-0.426 0.054,-0.488 0.076,-0.537C0.092,-0.574 0.115,-0.606 0.143,-0.635C0.171,-0.664 0.202,-0.686 0.235,-0.7C0.28,-0.719 0.331,-0.728 0.39,-0.728C0.495,-0.728 0.58,-0.695 0.643,-0.63C0.706,-0.564 0.738,-0.473 0.738,-0.357C0.738,-0.241 0.706,-0.151 0.644,-0.086C0.581,-0.02 0.497,0.012 0.392,0.012C0.285,0.012 0.201,-0.02 0.138,-0.085C0.075,-0.15 0.043,-0.24 0.043,-0.354ZM0.192,-0.358C0.192,-0.277 0.211,-0.216 0.249,-0.174C0.286,-0.132 0.333,-0.111 0.391,-0.111C0.449,-0.111 0.496,-0.132 0.533,-0.174C0.57,-0.215 0.588,-0.277 0.588,-0.36C0.588,-0.442 0.57,-0.504 0.534,-0.544C0.498,-0.584 0.451,-0.604 0.391,-0.604C0.332,-0.604 0.284,-0.584 0.247,-0.543C0.211,-0.502 0.192,-0.441 0.192,-0.358Z" style="fill:white;fill-rule:nonzero;"/>
                </g>
                <g transform="matrix(185.674,0,0,185.674,1163.51,697)">
                    <path d="M0.073,-0L0.073,-0.716L0.377,-0.716C0.454,-0.716 0.51,-0.709 0.544,-0.697C0.579,-0.684 0.607,-0.661 0.627,-0.628C0.648,-0.595 0.659,-0.557 0.659,-0.515C0.659,-0.461 0.643,-0.417 0.611,-0.382C0.58,-0.347 0.533,-0.325 0.47,-0.316C0.501,-0.298 0.527,-0.278 0.547,-0.256C0.567,-0.234 0.595,-0.195 0.629,-0.14L0.717,-0L0.544,-0L0.439,-0.156C0.402,-0.211 0.377,-0.247 0.363,-0.261C0.35,-0.275 0.335,-0.285 0.32,-0.291C0.305,-0.296 0.28,-0.299 0.247,-0.299L0.218,-0.299L0.218,-0L0.073,-0ZM0.218,-0.413L0.325,-0.413C0.394,-0.413 0.437,-0.416 0.455,-0.422C0.472,-0.428 0.485,-0.438 0.495,-0.452C0.505,-0.466 0.51,-0.484 0.51,-0.506C0.51,-0.53 0.503,-0.549 0.49,-0.564C0.478,-0.579 0.459,-0.588 0.436,-0.592C0.424,-0.594 0.389,-0.595 0.331,-0.595L0.218,-0.595L0.218,-0.413Z" style="fill:white;fill-rule:nonzero;"/>
                </g>
                <g transform="matrix(185.674,0,0,185.674,1297.6,697)">
                    <path d="M0.071,-0L0.071,-0.716L0.287,-0.716L0.417,-0.228L0.545,-0.716L0.762,-0.716L0.762,-0L0.628,-0L0.628,-0.563L0.486,-0L0.347,-0L0.205,-0.563L0.205,-0L0.071,-0Z" style="fill:white;fill-rule:nonzero;"/>
                </g>
                <g transform="matrix(185.674,0,0,185.674,1452.27,697)">
                    <path d="M0.718,-0L0.561,-0L0.499,-0.163L0.212,-0.163L0.153,-0L0,-0L0.279,-0.716L0.432,-0.716L0.718,-0ZM0.452,-0.283L0.354,-0.549L0.257,-0.283L0.452,-0.283Z" style="fill:white;fill-rule:nonzero;"/>
                </g>
                <g transform="matrix(185.674,0,0,185.674,1586.36,697)">
                    <path d="M0.077,-0L0.077,-0.71L0.221,-0.71L0.221,-0.121L0.581,-0.121L0.581,-0L0.077,-0Z" style="fill:white;fill-rule:nonzero;"/>
                </g>
            </g>
            <g id="emoji-happy" transform="matrix(9.375,0,0,9.375,496.25,566.75)">
                <path d="M10,0.4C4.698,0.4 0.4,4.698 0.4,10C0.4,15.302 4.698,19.6 10,19.6C15.301,19.6 19.6,15.302 19.6,9.999C19.6,4.698 15.301,0.4 10,0.4ZM10,17.599C5.803,17.599 2.4,14.197 2.4,9.999C2.4,5.801 5.802,2.4 10,2.4C14.197,2.4 17.601,5.802 17.601,10C17.601,14.198 14.197,17.599 10,17.599ZM7.501,9.75C8.329,9.75 9,8.967 9,8C9,7.033 8.328,6.25 7.5,6.25C6.672,6.25 6,7.033 6,8C6,8.967 6.672,9.75 7.501,9.75ZM12.5,9.75C13.329,9.75 14,8.967 14,8C14,7.033 13.328,6.25 12.5,6.25C11.672,6.25 11,7.034 11,8C11,8.966 11.672,9.75 12.5,9.75ZM14.341,11.336C13.978,11.15 13.526,11.293 13.333,11.656C13.299,11.722 12.464,13.249 10.001,13.249C7.55,13.249 6.71,11.736 6.668,11.657C6.48,11.292 6.036,11.143 5.664,11.328C5.294,11.514 5.144,11.964 5.329,12.335C5.379,12.434 6.577,14.749 10.001,14.749C13.426,14.749 14.622,12.433 14.671,12.334C14.855,11.967 14.707,11.524 14.341,11.336Z" style="fill:white;fill-rule:nonzero;"/>
            </g>
        </g>
    </g>
</svg>
